<svg xmlns="http://www.w3.org/2000/svg" viewBox="0 0 623 623">
  <style>
    path { fill: #000; }
    @media (prefers-color-scheme: dark) {
      path { fill: #fff; }
    }
  </style>
  <path fill-rule="evenodd" d="M 190.16 241.06 L 115.24 241.06 L 74.63 311.40 L 114.97 381.28 L 189.82 381.28 L 152.41 446.08 L 192.78 516.00 L 274.83 516.00 L 311.49 452.51 L 348.00 515.75 L 430.44 515.75 L 470.50 446.36 L 433.20 381.75 L 507.74 381.75 L 548.44 311.25 L 507.73 240.75 L 433.36 240.75 L 470.46 176.49 L 430.34 107.00 L 348.48 107.00 L 311.70 170.69 L 274.93 107.00 L 192.39 107.00 L 152.57 175.96 Z M 306.32 179.79 L 273.71 236.28 L 203.75 115.12 L 268.99 115.12 Z M 457.44 172.48 L 392.30 172.48 L 359.18 115.12 L 424.33 115.12 Z M 235.65 302.01 L 163.08 176.33 L 195.63 119.95 L 268.20 245.64 Z M 311.43 302.09 L 278.87 245.68 L 351.43 119.99 L 384.00 176.40 Z M 423.04 241.00 L 357.68 241.00 L 392.32 181.00 L 457.68 181.00 Z M 159.49 308.00 L 126.01 250.00 L 194.81 250.00 L 228.30 308.00 Z M 390.72 307.95 L 357.26 250.00 L 502.27 250.00 L 535.73 307.95 Z M 242.93 308.00 L 273.61 254.85 L 304.29 308.00 Z M 319.09 307.75 L 349.75 254.63 L 380.42 307.75 Z M 117.90 368.06 L 85.21 311.44 L 117.88 254.87 L 150.57 311.48 Z M 271.08 372.96 L 125.66 372.96 L 158.55 316.00 L 303.96 316.00 Z M 392.36 442.00 L 319.62 316.00 L 384.97 316.00 L 457.72 442.00 Z M 502.17 373.00 L 428.45 373.00 L 395.59 316.09 L 535.03 316.09 Z M 281.16 373.00 L 311.48 320.48 L 341.80 373.00 Z M 268.53 508.00 L 203.22 508.00 L 276.46 381.14 L 341.77 381.14 Z M 195.86 502.65 L 163.04 445.79 L 199.87 382.00 L 265.52 382.00 Z M 351.33 502.81 L 316.92 443.22 L 349.65 386.54 L 384.05 446.13 Z M 424.20 508.00 L 358.95 508.00 L 392.43 450.00 L 457.68 450.00 Z"/>
</svg>
